HIERARCHY
ROOT hip
{
	OFFSET 0.000000 0.000000 0.000000
	CHANNELS 6 Xposition Yposition Zposition Xrotation Zrotation Yrotation 
	JOINT abdomen
	{
		OFFSET 0.000000 3.422050 0.000000
		CHANNELS 3 Xrotation Zrotation Yrotation 
		JOINT chest
		{
			OFFSET 0.000000 8.486693 -0.684411
			CHANNELS 3 Xrotation Zrotation Yrotation 
			JOINT neck
			{
				OFFSET 0.000000 10.266162 -0.273764
				CHANNELS 3 Xrotation Zrotation Yrotation 
				JOINT head
				{
					OFFSET 0.000000 3.148285 0.000000
					CHANNELS 3 Xrotation Zrotation Yrotation 
					End Site
					{
						OFFSET 0.000000 3.148289 0.000000
					}
				}
			}
			JOINT lCollar
			{
				OFFSET 3.422053 6.707223 -0.821293
				CHANNELS 3 Yrotation Zrotation Xrotation 
				JOINT lShldr
				{
					OFFSET 3.285171 0.000000 0.000000
					CHANNELS 3 Zrotation Yrotation Xrotation 
					JOINT lForeArm
					{
						OFFSET 10.129278 0.000000 0.000000
						CHANNELS 3 Yrotation Zrotation Xrotation 
						JOINT lHand
						{
							OFFSET 8.486692 0.000000 0.000000
							CHANNELS 3 Zrotation Yrotation Xrotation 
							End Site
							{
								OFFSET 4.106464 0.000000 0.000000
							}
						}
					}
				}
			}
			JOINT rCollar
			{
				OFFSET -3.558935 6.707223 -0.821293
				CHANNELS 3 Yrotation Zrotation Xrotation 
				JOINT rShldr
				{
					OFFSET -3.148289 0.000000 0.000000
					CHANNELS 3 Zrotation Yrotation Xrotation 
					JOINT rForeArm
					{
						OFFSET -10.266159 0.000000 0.000000
						CHANNELS 3 Yrotation Zrotation Xrotation 
						JOINT rHand
						{
							OFFSET -8.349810 0.000000 0.000000
							CHANNELS 3 Zrotation Yrotation Xrotation 
							End Site
							{
								OFFSET -4.106464 0.000000 0.000000
							}
						}
					}
				}
			}
		}
	}
	JOINT lThigh
	{
		OFFSET 5.338403 -1.642589 1.368821
		CHANNELS 3 Xrotation Zrotation Yrotation 
		JOINT lShin
		{
			OFFSET -2.053232 -20.121670 0.000000
			CHANNELS 3 Xrotation Zrotation Yrotation 
			JOINT lFoot
			{
				OFFSET 0.000000 -19.300380 -1.231939
				CHANNELS 3 Xrotation Yrotation Zrotation 
				End Site
				{
					OFFSET 0.000000 -2.463878 4.653993
				}
			}
		}
	}
	JOINT rThigh
	{
		OFFSET -5.338403 -1.642589 1.368821
		CHANNELS 3 Xrotation Zrotation Yrotation 
		JOINT rShin
		{
			OFFSET 2.053232 -20.121670 0.000000
			CHANNELS 3 Xrotation Zrotation Yrotation 
			JOINT rFoot
			{
				OFFSET 0.000000 -19.300380 -1.231939
				CHANNELS 3 Xrotation Yrotation Zrotation 
				End Site
				{
					OFFSET 0.000000 -2.463878 4.653993
				}
			}
		}
	}
}
MOTION
Frames: 8
Frame Time: 0.033264
0.501617 17.785107 0.247804 2.998827 0.000000 -180.000000 -12.296071 -1.126789 -1.691976 -5.949150 -0.556749 -0.841293 -8.512102 0.000000 0.000000 -9.121347 0.000000 0.000000 -17.125858 -15.522976 -2.826881 -65.873497 -16.489584 -83.928268 28.971163 -1.107409 74.633789 11.714011 22.979225 -3.530716 -22.781073 -0.970304 -8.731987 57.844067 -26.265167 -86.457397 -51.798954 3.351429 74.007668 -45.675797 3.577472 11.723302 -26.478268 40.944424 -69.111526 121.446938 -38.923733 15.818590 70.921135 -49.729382 31.422396 -25.699640 -39.059734 67.512726 123.696281 38.124691 -14.445181 67.304382 49.619205 -28.207680 
0.501617 17.849836 0.210257 2.998827 0.000000 -180.000000 -12.296071 -1.126789 -1.691976 -5.949150 -0.556749 -0.841293 -7.307311 0.000000 0.000000 -9.121347 0.000000 0.000000 -17.143135 -15.366763 -2.909386 -65.873497 -16.489584 -83.928268 29.127611 -0.966234 74.637772 11.303174 23.552948 -3.554564 -22.955118 -0.483468 -8.652077 57.644085 -26.142860 -86.385628 -51.009365 3.371720 73.960510 -45.675797 3.577472 11.723302 -26.316687 40.762306 -68.975266 121.212830 -39.015301 15.974491 70.842354 -49.668011 31.119740 -25.541348 -38.886482 67.380302 123.461617 38.223831 -14.598710 67.245224 49.548660 -27.933207 
0.501617 17.914568 0.172710 2.998827 0.000000 -180.000000 -12.296071 -1.126789 -1.691976 -5.949150 -0.556749 -0.841293 -6.100231 0.000000 0.000000 -9.121347 0.000000 0.000000 -17.160162 -15.210519 -2.991778 -65.873497 -16.489584 -83.928268 29.284033 -0.825055 74.641357 10.890316 24.126404 -3.583019 -23.129826 0.003080 -8.570698 57.444508 -26.020342 -86.314415 -50.219887 3.391356 73.913078 -45.675797 3.577472 11.723302 -26.156113 40.579895 -68.840042 120.978104 -39.106377 16.131071 70.764168 -49.606358 30.817606 -25.383945 -38.712929 67.248787 123.226273 38.322468 -14.752959 67.186638 49.477921 -27.659233 
0.501617 17.979298 0.135163 2.998827 0.000000 -180.000000 -12.296071 -1.126789 -1.691976 -5.949150 -0.556749 -0.841293 -4.891120 0.000000 0.000000 -9.121347 0.000000 0.000000 -17.176952 -15.054261 -3.074062 -65.873497 -16.489584 -83.928268 29.440445 -0.683870 74.644569 10.475357 24.699535 -3.616144 -23.305214 0.489318 -8.487846 57.245296 -25.897598 -86.243752 -49.430603 3.410334 73.865402 -45.675797 3.577472 11.723302 -25.996563 40.397228 -68.705894 120.742760 -39.196941 16.288330 70.686607 -49.544453 30.515999 -25.227449 -38.539120 67.118233 122.990288 38.420612 -14.907936 67.128670 49.407009 -27.385775 
0.501617 18.044029 0.097616 2.998827 0.000000 -180.000000 -12.296071 -1.126789 -1.691976 -5.949150 -0.556749 -0.841293 -3.680249 0.000000 0.000000 -9.121347 0.000000 0.000000 -17.193489 -14.897984 -3.156236 -65.873497 -16.489584 -83.928268 29.596832 -0.542676 74.647377 10.058221 25.272263 -3.654001 -23.481289 0.975217 -8.403509 57.046459 -25.774633 -86.173630 -48.641586 3.428647 73.817474 -45.675797 3.577472 11.723302 -25.838003 40.214268 -68.572762 120.506775 -39.286991 16.446260 70.609627 -49.482285 30.214907 -25.071833 -38.365025 66.988594 122.753647 38.518250 -15.063636 67.071335 49.335934 -27.112843 
0.501617 18.108759 0.060068 2.998827 0.000000 -180.000000 -12.296071 -1.126789 -1.691976 -5.949150 -0.556749 -0.841293 -2.467885 0.000000 0.000000 -9.121347 0.000000 0.000000 -17.209787 -14.741683 -3.238303 -65.873497 -16.489584 -83.928268 29.753210 -0.401482 74.649811 9.638824 25.844511 -3.696655 -23.658072 1.460753 -8.317681 56.848015 -25.651464 -86.104065 -47.852924 3.446295 73.769333 -45.675797 3.577472 11.723302 -25.680424 40.031033 -68.440643 120.270195 -39.376560 16.604883 70.533249 -49.419849 29.914337 -24.917097 -38.190670 66.859863 122.516373 38.615383 -15.220054 67.014603 49.264679 -26.840429 
0.501617 18.173489 0.022521 2.998827 0.000000 -180.000000 -12.296071 -1.126789 -1.691976 -5.949150 -0.556749 -0.841293 -1.254293 0.000000 0.000000 -9.121347 0.000000 0.000000 -17.225838 -14.585365 -3.320263 -65.873497 -16.489584 -83.928268 29.909567 -0.260285 74.651855 9.217082 26.416208 -3.744171 -23.835585 1.945901 -8.230357 56.649933 -25.528072 -86.035034 -47.064667 3.463262 73.720963 -45.675797 3.577472 11.723302 -25.523830 39.847534 -68.309547 120.032982 -39.465603 16.764170 70.457481 -49.357159 29.614298 -24.763241 -38.016052 66.732056 122.278419 38.711990 -15.377184 66.958443 49.193237 -26.568518 
0.501617 18.238220 -0.015026 2.998827 0.000000 -180.000000 -12.296071 -1.126789 -1.691976 -5.949150 -0.556749 -0.841293 -0.039747 0.000000 0.000000 -9.121347 0.000000 0.000000 -17.241648 -14.429032 -3.402116 -65.873497 -16.489584 -83.928268 30.065920 -0.119095 74.653526 8.792908 26.987268 -3.796619 -24.013842 2.430633 -8.141524 56.452251 -25.404482 -85.966576 -46.276913 3.479555 73.672409 -45.675797 3.577472 11.723302 -25.368202 39.663765 -68.179451 119.795166 -39.554134 16.924137 70.382339 -49.294239 29.314804 -24.610249 -37.841179 66.605156 122.039841 38.808105 -15.535048 66.902901 49.121639 -26.297125 
